<svg xmlns="http://www.w3.org/2000/svg" viewBox="0 0 39.15 39.61"><defs><style>.cls-1{fill:#75cb63;}</style></defs><title>Asset 4_new_20</title><g id="Layer_2" data-name="Layer 2"><g id="Layer_1-2" data-name="Layer 1"><path class="cls-1" d="M39.15,8.54a1,1,0,0,0,0-.17.14.14,0,0,0,0-.06A.64.64,0,0,0,39,8.12L31,.19a.86.86,0,0,0-.2-.13l-.06,0a.47.47,0,0,0-.17,0H10.77a3.3,3.3,0,0,0-3.3,3.3V8.16a12.52,12.52,0,0,0,0,22.91v5.24a3.3,3.3,0,0,0,3.3,3.3H35.85a3.3,3.3,0,0,0,3.3-3.3V8.54ZM36.9,7.92h-5a.66.66,0,0,1-.66-.66v-5ZM1.33,19.61A11.22,11.22,0,0,1,12.56,8.39c.37,0,.74,0,1.11,0a11.2,11.2,0,0,1,10,9.49,11.9,11.9,0,0,1,.14,1.68,11.18,11.18,0,0,1-1.72,6,11.43,11.43,0,0,1-3.53,3.53,11.24,11.24,0,0,1-17.2-9.51Zm18.89,9.92.27-.21a10.64,10.64,0,0,0,.94-.84,12.24,12.24,0,0,0,.83-.93l.21-.27c.08-.1.17-.2.25-.31l5.62,5.64A1.92,1.92,0,0,1,28.93,34a1.94,1.94,0,0,1-.59,1.4,2,2,0,0,1-2.79,0l-5.64-5.63a3.65,3.65,0,0,0,.31-.24Zm15.63,8.76H10.77a2,2,0,0,1-2-2V31.58l.12,0,.32.08c.25.07.5.14.75.19l.37.07.76.11.34,0a10.32,10.32,0,0,0,1.11.06,12.49,12.49,0,0,0,6.22-1.66l5.83,5.83a3.3,3.3,0,1,0,4.67-4.66l-5.84-5.84a12.43,12.43,0,0,0,1.66-6.22c0-.41,0-.83-.06-1.24A12.53,12.53,0,0,0,12.56,7.07c-.37,0-.74,0-1.11,0l-.34,0-.76.11L10,7.34c-.25,0-.5.11-.74.18l-.33.09-.12,0V3.3a2,2,0,0,1,2-2H29.91V7.26a2,2,0,0,0,2,2h5.94V36.31a2,2,0,0,1-2,2Z"/><path class="cls-1" d="M27.27,4.62A.66.66,0,0,0,26.61,4H12.09a.66.66,0,0,0,0,1.32H26.61a.65.65,0,0,0,.66-.66Z"/><path class="cls-1" d="M34.53,15.84H26.61a.66.66,0,0,0,0,1.32h7.92a.66.66,0,1,0,0-1.32Z"/><path class="cls-1" d="M34.53,19.8H26.61a.67.67,0,0,0,0,1.33h7.92a.67.67,0,0,0,0-1.33Z"/><path class="cls-1" d="M35.19,24.43a.65.65,0,0,0-.66-.66H26a.66.66,0,1,0,0,1.32h8.58a.66.66,0,0,0,.66-.66Z"/><path class="cls-1" d="M35.19,28.39a.65.65,0,0,0-.66-.66H28.59a.66.66,0,1,0,0,1.32h5.94a.66.66,0,0,0,.66-.66Z"/><path class="cls-1" d="M27.27,8.58a.66.66,0,0,0-.66-.66H21.33a.66.66,0,1,0,0,1.32h5.28a.65.65,0,0,0,.66-.66Z"/><path class="cls-1" d="M35.19,12.54a.66.66,0,0,0-.66-.66h-9.9a.66.66,0,1,0,0,1.32h9.9a.65.65,0,0,0,.66-.66Z"/><path class="cls-1" d="M10.11,16.5h4.62a.66.66,0,0,0,0-1.32H10.11a.66.66,0,0,0,0,1.32Z"/><path class="cls-1" d="M18,19.8a.67.67,0,0,0-.66-.66H7.47a.66.66,0,0,0,0,1.32h9.9A.66.66,0,0,0,18,19.8Z"/><path class="cls-1" d="M14.73,23.11H10.11a.66.66,0,0,0,0,1.32h4.62a.66.66,0,0,0,0-1.32Z"/><path class="cls-1" d="M17.26,28.32a9.73,9.73,0,0,0,3.85-3.73c.05-.1.11-.18.16-.28s0-.09.07-.14.19-.39.28-.58.15-.39.22-.58a1.22,1.22,0,0,0,.07-.17,9.91,9.91,0,1,0-4.65,5.48ZM8.44,27.14a8.43,8.43,0,0,1-1.95-1.46,9.06,9.06,0,0,1-1.08-1.31A6.52,6.52,0,0,1,5,23.65a8.58,8.58,0,1,1,15.12,0h0a8.39,8.39,0,0,1-3.46,3.47,8.58,8.58,0,0,1-8.2,0Z"/><path class="cls-1" d="M35.85,31.69a.66.66,0,0,0-.66.66V35a.66.66,0,0,1-.66.66H31.89a.66.66,0,0,0,0,1.32h2.64a2,2,0,0,0,2-2V32.35a.65.65,0,0,0-.66-.66Z"/></g></g></svg>