<svg xmlns="http://www.w3.org/2000/svg" viewBox="0 0 40.34 35.89"><defs><style>.cls-1{fill:#75cb63;}</style></defs><title>Asset 6_new_20</title><g id="Layer_2" data-name="Layer 2"><g id="Layer_1-2" data-name="Layer 1"><path class="cls-1" d="M40.34,18a2.22,2.22,0,0,0-1.24-2l-3-1.51,3-1.5h0a2.23,2.23,0,0,0,0-4L22.15.46a4.51,4.51,0,0,0-4,0l-17,8.48a2.23,2.23,0,0,0,0,4l3,1.5L1.24,16a2.23,2.23,0,0,0,0,4l3,1.5-3,1.5a2.23,2.23,0,0,0,0,4l17,8.48a4.49,4.49,0,0,0,4,0L39.1,27a2.23,2.23,0,0,0,0-4l-3-1.5,3-1.5A2.23,2.23,0,0,0,40.34,18ZM2.07,11.28a.37.37,0,0,1,0-.68L19,2.12a2.56,2.56,0,0,1,1.15-.27,2.59,2.59,0,0,1,1.15.27l17,8.48a.38.38,0,0,1,0,.68l-17,8.48a2.58,2.58,0,0,1-2.3,0Zm36.2,13.33a.38.38,0,0,1,0,.68l-17,8.48a2.58,2.58,0,0,1-2.3,0L2.07,25.29a.37.37,0,0,1,0-.68l4.24-2.12,11.88,5.94a4.42,4.42,0,0,0,2,.46,4.56,4.56,0,0,0,2-.46L34,22.49Zm0-6.32-17,8.48a2.58,2.58,0,0,1-2.3,0L2.07,18.29a.37.37,0,0,1,0-.68l4.24-2.13,11.88,5.94a4.49,4.49,0,0,0,4,0L34,15.48l4.25,2.12a.37.37,0,0,1,.21.35A.35.35,0,0,1,38.27,18.29Z"/></g></g></svg>