<svg xmlns="http://www.w3.org/2000/svg" viewBox="0 0 37.7 43.9"><defs><style>.cls-1{fill:#75cb63;}</style></defs><title>Asset 2_new_20</title><g id="Layer_2" data-name="Layer 2"><g id="Layer_1-2" data-name="Layer 1"><path class="cls-1" d="M32.75,35.44a5,5,0,0,0,0-9.91H5a5,5,0,0,0,0,9.91H7.86l-.38.3A1.46,1.46,0,0,0,8,38.29l.19.05-1,3.74a.87.87,0,0,0,.62,1.05l2.92.75.21,0a.88.88,0,0,0,.44-.12.86.86,0,0,0,.39-.52l1-3.74.2,0a1.46,1.46,0,0,0,1.71-2l-.87-2.16h18.9Zm-2.59-8.19h2.59a3.24,3.24,0,0,1,0,6.47H30.16ZM8.42,37.62Zm4.09.05a1,1,0,0,0-1.17.7L10.4,42l-1.25-.32.93-3.63a1,1,0,0,0-.1-.74,1,1,0,0,0-.6-.44L9,36.76l1.62-1.32,1.07-.87.35.87,1,2.34Zm.64-4-.36-.87a.85.85,0,0,0-.58-.51.88.88,0,0,0-.75.17L10,33.72H5a3.24,3.24,0,1,1,0-6.47H28.44v6.47Z"/><path class="cls-1" d="M33.24,32.11l1-1.27a.84.84,0,0,0,0-1.06l-1-1.26a.85.85,0,0,0-1.2-.14.86.86,0,0,0-.14,1.2l.58.73L31.9,31a.86.86,0,0,0,1.34,1.07Z"/><path class="cls-1" d="M6.8,30.16A.53.53,0,0,0,6.72,30a1,1,0,0,0-.24-.24.53.53,0,0,0-.15-.08l-.16-.05a.88.88,0,0,0-.77.24.69.69,0,0,0-.11.13,1,1,0,0,0-.08.15.75.75,0,0,0,0,.16.44.44,0,0,0,0,.16.47.47,0,0,0,0,.17.75.75,0,0,0,0,.16l.08.15a1,1,0,0,0,.24.24l.15.08.16,0a.47.47,0,0,0,.17,0,.44.44,0,0,0,.16,0l.16,0,.15-.08A1,1,0,0,0,6.72,31a1.09,1.09,0,0,0,.08-.15.75.75,0,0,0,0-.16.91.91,0,0,0,0-.17.86.86,0,0,0,0-.16A.75.75,0,0,0,6.8,30.16Z"/><path class="cls-1" d="M11.36,30.16a.53.53,0,0,0-.08-.15.69.69,0,0,0-.11-.13.88.88,0,0,0-.77-.24l-.16.05-.15.08a1,1,0,0,0-.24.24,1,1,0,0,0-.08.15.75.75,0,0,0,0,.16.44.44,0,0,0,0,.16.47.47,0,0,0,0,.17.75.75,0,0,0,0,.16l.08.15a1,1,0,0,0,.24.24l.15.08.16,0a.47.47,0,0,0,.17,0,.44.44,0,0,0,.16,0l.16,0L11,31.2a1,1,0,0,0,.24-.24,1.09,1.09,0,0,0,.08-.15.75.75,0,0,0,.05-.16.91.91,0,0,0,0-.17.86.86,0,0,0,0-.16A.75.75,0,0,0,11.36,30.16Z"/><path class="cls-1" d="M15.92,30.16a.53.53,0,0,0-.08-.15.69.69,0,0,0-.11-.13.88.88,0,0,0-.77-.24l-.16.05-.15.08a1,1,0,0,0-.24.24.52.52,0,0,0-.07.15.43.43,0,0,0-.05.16.69.69,0,0,0,0,.33.43.43,0,0,0,.05.16,1,1,0,0,0,.07.15,1,1,0,0,0,.24.24l.15.08.16,0a.47.47,0,0,0,.17,0,.44.44,0,0,0,.16,0l.16,0,.15-.08a1,1,0,0,0,.24-.24,1.09,1.09,0,0,0,.08-.15.75.75,0,0,0,.05-.16.91.91,0,0,0,0-.17.86.86,0,0,0,0-.16A.75.75,0,0,0,15.92,30.16Z"/><path class="cls-1" d="M20.48,30.16A.53.53,0,0,0,20.4,30a.69.69,0,0,0-.11-.13.88.88,0,0,0-.77-.24l-.16.05-.15.08A1,1,0,0,0,19,30a.52.52,0,0,0-.07.15.43.43,0,0,0,0,.16.69.69,0,0,0,0,.33.43.43,0,0,0,0,.16A1,1,0,0,0,19,31a1,1,0,0,0,.24.24l.15.08.16,0a.47.47,0,0,0,.17,0,.44.44,0,0,0,.16,0l.16,0,.15-.08A1,1,0,0,0,20.4,31a1.09,1.09,0,0,0,.08-.15.75.75,0,0,0,.05-.16.91.91,0,0,0,0-.17.86.86,0,0,0,0-.16A.75.75,0,0,0,20.48,30.16Z"/><path class="cls-1" d="M25,30.16A.53.53,0,0,0,25,30a1,1,0,0,0-.24-.24l-.14-.08-.17-.05a.91.91,0,0,0-.33,0l-.16.05-.15.08a.69.69,0,0,0-.13.11l-.11.13a.52.52,0,0,0-.07.15.43.43,0,0,0-.05.16.69.69,0,0,0,0,.33.43.43,0,0,0,.05.16,1,1,0,0,0,.07.15l.11.13a.69.69,0,0,0,.13.11l.15.08.16,0a.47.47,0,0,0,.17,0,.44.44,0,0,0,.16,0l.17,0,.14-.08A1,1,0,0,0,25,31a1.09,1.09,0,0,0,.08-.15.75.75,0,0,0,.05-.16.91.91,0,0,0,0-.17.86.86,0,0,0,0-.16A.75.75,0,0,0,25,30.16Z"/><path class="cls-1" d="M11.39,21.73a12.05,12.05,0,0,0,6.77,2.52h1.3a11.94,11.94,0,0,0,6.85-2.59.27.27,0,0,0,.08-.07,12.13,12.13,0,1,0-15.06.08Zm13.54-1.17a10.45,10.45,0,0,1-5,1.93h-.16l-.17,0-.31,0h-.93l-.3,0h-.17l-.18,0-.21,0h0a10.54,10.54,0,0,1-4.69-1.84V19.06a6.07,6.07,0,0,1,2.57-4.95,5.7,5.7,0,0,0,7,0,6.07,6.07,0,0,1,2.57,4.95v1.5ZM8.39,12.13A10.42,10.42,0,1,1,26.64,19a7.78,7.78,0,0,0-3.09-6.14,5.66,5.66,0,0,0,1-3.24,6.07,6.07,0,0,0-.06-.85A.86.86,0,0,0,22.8,9a4,4,0,0,1,.05.6A4,4,0,0,1,22.07,12a4,4,0,0,1-6.44,0,4,4,0,0,1-.78-2.36,4,4,0,0,1,4-4,4.51,4.51,0,0,1,.9.1.86.86,0,0,0,1-.64.87.87,0,0,0-.65-1,6.12,6.12,0,0,0-1.28-.14,5.71,5.71,0,0,0-4.7,9,7.79,7.79,0,0,0-3.09,6.21v0A10.35,10.35,0,0,1,8.39,12.13Z"/><path class="cls-1" d="M21.62,6.63a.52.52,0,0,0,.07.15l.11.13a.69.69,0,0,0,.13.11l.15.08.16.05h.33l.17-.05L22.88,7a1,1,0,0,0,.24-.24.53.53,0,0,0,.08-.15.75.75,0,0,0,.05-.16.86.86,0,0,0,0-.16.91.91,0,0,0,0-.17A.75.75,0,0,0,23.2,6a1.09,1.09,0,0,0-.08-.15,1,1,0,0,0-.24-.24l-.14-.08-.17,0a.62.62,0,0,0-.33,0l-.16,0-.15.08a.69.69,0,0,0-.13.11l-.11.13a1,1,0,0,0-.07.15.43.43,0,0,0-.05.16.69.69,0,0,0,0,.33A.43.43,0,0,0,21.62,6.63Z"/></g></g></svg>