<svg xmlns="http://www.w3.org/2000/svg" viewBox="0 0 40.57 39.29"><defs><style>.cls-1{fill:#75cb63;}.cls-2,.cls-3{fill:none;}.cls-3{stroke:#75cb63;stroke-miterlimit:10;stroke-width:1.24px;}</style></defs><title>Asset 5_new_20</title><g id="Layer_2" data-name="Layer 2"><g id="Layer_1-2" data-name="Layer 1"><path class="cls-1" d="M34.8,3.23A3.23,3.23,0,0,0,31.57,0H3.22A3.22,3.22,0,0,0,0,3.23V31.58A3.22,3.22,0,0,0,3.22,34.8H20V33.51H3.22a1.92,1.92,0,0,1-1.93-1.93V3.23A1.93,1.93,0,0,1,3.22,1.29H31.57a1.94,1.94,0,0,1,1.94,1.94V18.05H34.8"/><polyline class="cls-2" points="39.95 38.71 0.01 38.71 0.01 0 39.95 0"/><rect class="cls-1" x="2.58" y="2.58" width="1.29" height="1.29"/><rect class="cls-1" x="5.16" y="2.58" width="1.29" height="1.29"/><rect class="cls-1" x="7.73" y="2.58" width="1.29" height="1.29"/><rect class="cls-1" x="2.58" y="5.16" width="29.64" height="1.29"/><path class="cls-1" d="M9.21,7.93,7.57,9.56a3.23,3.23,0,1,0,.91.91l1.64-1.63ZM5.8,14.18a1.93,1.93,0,0,1,0-3.86,1.84,1.84,0,0,1,.83.19L5.34,11.79l.91.91,1.29-1.28a1.84,1.84,0,0,1,.19.83A1.92,1.92,0,0,1,5.8,14.18Z"/><rect class="cls-1" x="10.95" y="10.32" width="10.95" height="1.29"/><rect class="cls-1" x="10.95" y="12.89" width="4.51" height="1.29"/><rect class="cls-1" x="16.75" y="12.89" width="9.02" height="1.29"/><rect class="cls-1" x="23.2" y="10.32" width="6.44" height="1.29"/><path class="cls-1" d="M9.21,15.66,7.57,17.3a3.23,3.23,0,1,0,.91.91l1.64-1.64ZM5.8,21.91a1.93,1.93,0,0,1,0-3.86,2,2,0,0,1,.83.19L5.34,19.53l.91.91,1.29-1.29a1.84,1.84,0,0,1,.19.83A1.92,1.92,0,0,1,5.8,21.91Z"/><rect class="cls-1" x="10.95" y="18.05" width="10.95" height="1.29"/><rect class="cls-1" x="10.95" y="20.63" width="4.51" height="1.29"/><rect class="cls-1" x="16.75" y="20.63" width="5.15" height="1.29"/><rect class="cls-1" x="23.2" y="18.05" width="2.58" height="1.29"/><path class="cls-1" d="M9.21,23.39,7.57,25a3.23,3.23,0,1,0,.91.91l1.64-1.64ZM5.8,29.65a1.94,1.94,0,0,1,0-3.87,2,2,0,0,1,.83.19L5.34,27.26l.91.91,1.29-1.28a1.8,1.8,0,0,1,.19.82A1.93,1.93,0,0,1,5.8,29.65Z"/><rect class="cls-1" x="10.95" y="25.78" width="8.38" height="1.29"/><rect class="cls-1" x="10.95" y="28.36" width="4.51" height="1.29"/><rect class="cls-1" x="16.75" y="28.36" width="2.58" height="1.29"/><path class="cls-3" d="M40,29a9.67,9.67,0,1,0-9.66,9.67h0A9.67,9.67,0,0,0,40,29"/><path class="cls-1" d="M35.25,25,34.34,24l-7.1,7.1-.88-1.78-1.16.57,1.29,2.58a.63.63,0,0,0,.47.35h.1a.66.66,0,0,0,.46-.19L35.25,25"/></g></g></svg>