<svg xmlns="http://www.w3.org/2000/svg" viewBox="0 0 38.95 33.48"><defs><style>.cls-1{fill:#75cb63;}</style></defs><title>Asset 7_new_20</title><g id="Layer_2" data-name="Layer 2"><g id="Layer_1-2" data-name="Layer 1"><path class="cls-1" d="M32.33,33.48H4.68A4.69,4.69,0,0,1,0,28.79V9.56A4.69,4.69,0,0,1,4.68,4.88h7.89L25.71,0a.54.54,0,0,1,.45,0,.59.59,0,0,1,.3.34L27,2.09,30.47,1a.58.58,0,0,1,.73.41l.91,3.48h.22A4.69,4.69,0,0,1,37,9.56v4.82A2.65,2.65,0,0,1,39,16.93v4.49A2.65,2.65,0,0,1,37,24v4.81a4.69,4.69,0,0,1-4.68,4.69ZM4.68,6A3.53,3.53,0,0,0,1.16,9.56V28.79a3.53,3.53,0,0,0,3.52,3.53H32.33a3.53,3.53,0,0,0,3.52-3.53V24.08H25.5A2.52,2.52,0,0,1,23,21.56V16.8a2.52,2.52,0,0,1,2.52-2.52H35.85V9.56A3.53,3.53,0,0,0,32.33,6H4.68ZM24.14,21.42a1.5,1.5,0,0,0,1.5,1.5H36.3a1.5,1.5,0,0,0,1.49-1.5V16.93a1.49,1.49,0,0,0-1.49-1.49H25.64a1.5,1.5,0,0,0-1.5,1.49Zm3.8-16.54h3l-.67-2.6-2.86.91Zm-12,0h10.8L26.1,3h0l-.55-1.66ZM27.53,21.37a2.2,2.2,0,1,1,2.19-2.19,2.19,2.19,0,0,1-2.19,2.19Zm0-3.23a1,1,0,0,0-1,1c0,.57,1.41,0,2,0s.09.59.09,0a1,1,0,0,0-1-1Z"/></g></g></svg>