<svg xmlns="http://www.w3.org/2000/svg" width="27.756" height="32.232" viewBox="0 0 27.756 32.232">
  <path id="Icon_awesome-copy" data-name="Icon awesome-copy" d="M19.825,28.2v2.518a1.5,1.5,0,0,1-1.487,1.511H1.487A1.5,1.5,0,0,1,0,30.722V7.554A1.5,1.5,0,0,1,1.487,6.044H5.948V24.678A3.5,3.5,0,0,0,9.417,28.2Zm0-21.656V0H9.417A1.5,1.5,0,0,0,7.93,1.511V24.678a1.5,1.5,0,0,0,1.487,1.511H26.269a1.5,1.5,0,0,0,1.487-1.511V8.058H21.312A1.5,1.5,0,0,1,19.825,6.547ZM27.32,4.594,23.235.443A1.475,1.475,0,0,0,22.183,0h-.375V6.044h5.948V5.662a1.523,1.523,0,0,0-.435-1.068Z" fill="#1087eb"/>
</svg>
