<svg xmlns="http://www.w3.org/2000/svg" viewBox="0 0 63.3 54.8"><defs><style>.cls-1{fill:#75cb63;}.cls-2{isolation:isolate;font-size:18.8px;fill:#fff;font-family:ArialMT, Arial;}</style></defs><title>ic_link</title><g id="Layer_2" data-name="Layer 2"><g id="Layer_1-2" data-name="Layer 1"><path class="cls-1" d="M55.3,25.1a.79.79,0,0,0-.8.8v25a2.26,2.26,0,0,1-2.3,2.3H14.7a2.26,2.26,0,0,1-2.3-2.3V13.4a2.26,2.26,0,0,1,2.3-2.3h25a.8.8,0,1,0,0-1.6h-25a3.9,3.9,0,0,0-3.9,3.9V50.9a3.9,3.9,0,0,0,3.9,3.9H52.2a3.9,3.9,0,0,0,3.9-3.9v-25c-.1-.4-.4-.8-.8-.8Z"/><path class="cls-1" d="M49.4,16a.91.91,0,0,0,0,1.2,3.44,3.44,0,0,1,0,4.8l-7,7a3.44,3.44,0,0,1-4.8,0l-1.1-1.1a3.44,3.44,0,0,1,0-4.8l7-7a.85.85,0,1,0-1.2-1.2l-7,7a5.07,5.07,0,0,0,0,7.2l1.1,1.1a5.07,5.07,0,0,0,7.2,0l7-7a5.07,5.07,0,0,0,0-7.2.91.91,0,0,0-1.2,0Z"/><path class="cls-1" d="M61.8,6.8,60.7,5.7a5.07,5.07,0,0,0-7.2,0l-7,7a5.07,5.07,0,0,0,0,7.2.85.85,0,0,0,1.2-1.2,3.44,3.44,0,0,1,0-4.8l7-7a3.44,3.44,0,0,1,4.8,0L60.6,8a3.44,3.44,0,0,1,0,4.8l-7,7a.91.91,0,0,0,0,1.2.73.73,0,0,0,.6.2,1.42,1.42,0,0,0,.6-.2l7-7a4.91,4.91,0,0,0,1.5-3.6,4.91,4.91,0,0,0-1.5-3.6Z"/><circle class="cls-1" cx="11.9" cy="11.9" r="11.9"/><text class="cls-2" transform="translate(7.04 17.38)">1</text></g></g></svg>