<svg xmlns="http://www.w3.org/2000/svg" width="70.002" height="75.4" viewBox="0 0 70.002 75.4"><g transform="translate(0.002)"><path d="M59.5,35.4a.94.94,0,0,0,1-1h0V30.9a.94.94,0,0,0-1-1H1a.94.94,0,0,0-1,1H0V59a.94.94,0,0,0,1,1H40.8a1,1,0,0,0,0-2H2V31.9H58.5v2.5a.94.94,0,0,0,1,1Z" fill="#1087eb"/><path d="M5.1,14.9a.82.82,0,0,0-.4.6L2.4,26a1.02,1.02,0,1,0,2,.4h0l2.1-9.5L52.3,27.2h.2a1.011,1.011,0,0,0,.2-2L5.9,14.7a1.2,1.2,0,0,0-.8.2Z" fill="#1087eb"/><path d="M17.1,13.8,19,10,46.2,21.3a1,1,0,0,0,.8-1.8L18.9,7.8a1,1,0,0,0-1.3.5L15.3,13a1,1,0,0,0,.4,1.4,1.2,1.2,0,0,0,1.4-.6Z" fill="#1087eb"/><path d="M48.7,35.6a.94.94,0,0,0-1-1H38.4a1,1,0,0,0,0,2h9.3a1.08,1.08,0,0,0,1-1Z" fill="#1087eb"/><path d="M29.1,55.2A10.3,10.3,0,1,0,18.8,44.9h0A10.29,10.29,0,0,0,29.1,55.2Zm0-18.7a8.32,8.32,0,1,1-5.964,2.436A8.4,8.4,0,0,1,29.1,36.5Z" fill="#1087eb"/><path d="M57.1,37.9c-6.2,0-12.9,1.5-12.9,4.7V70.7c0,3.2,6.7,4.7,12.9,4.7S70,73.9,70,70.7V42.6C70,39.4,63.3,37.9,57.1,37.9ZM67.6,66c-.2.6-3.7,2.4-10.5,2.4s-10.3-1.7-10.5-2.3V64.3c2.5,1.3,6.6,1.8,10.5,1.8s8-.6,10.5-1.8Zm0-4.7c-.2.6-3.7,2.4-10.5,2.4S46.8,62,46.6,61.4V59.6c2.5,1.3,6.6,1.8,10.5,1.8s8-.6,10.5-1.8Zm0-4.7c-.2.6-3.7,2.4-10.5,2.4s-10.3-1.7-10.5-2.3V54.9c2.5,1.3,6.6,1.8,10.5,1.8s8-.6,10.5-1.8Zm0-4.7c-.2.6-3.7,2.4-10.5,2.4S46.8,52.6,46.6,52V50.2c2.5,1.2,6.6,1.8,10.5,1.8s8-.6,10.5-1.8Zm0-4.6c-.2.6-3.7,2.4-10.5,2.4S46.8,48,46.6,47.4V45.6c2.5,1.2,6.6,1.8,10.5,1.8s8-.6,10.5-1.8Zm-10.5-7c6.8,0,10.3,1.7,10.5,2.3-.2.7-3.7,2.3-10.5,2.3s-10.3-1.7-10.5-2.3h0C46.8,42,50.3,40.3,57.1,40.3Zm0,32.7c-6.8,0-10.3-1.7-10.5-2.3V68.9c2.5,1.3,6.6,1.8,10.5,1.8s8-.6,10.5-1.8v1.8C67.5,71.3,64,73,57.1,73Z" fill="#1087eb"/><path d="M11.3,36.6h8.4a1,1,0,0,0,0-2H10.9a.91.91,0,0,0-.7.3L5,40a1.14,1.14,0,0,0-.3.8v8.3a.91.91,0,0,0,.3.7L9.8,55a1.08,1.08,0,0,0,.7.3h9.3a1,1,0,0,0,0-2H11L6.8,48.7V41.1Z" fill="#1087eb"/><path d="M29.6,46.7H26.7a1.22,1.22,0,0,0-1.2,1.2,1.16,1.16,0,0,0,1.2,1.2h1.2a1.2,1.2,0,1,0,2.4,0V49a2.68,2.68,0,0,0,2.3-2.6,2.78,2.78,0,0,0-2.9-2.6H28.5c-.4,0-.6-.2-.6-.3s.2-.3.6-.3h2.9a1.2,1.2,0,0,0,0-2.4H30.2a1.2,1.2,0,1,0-2.4,0v.1a2.68,2.68,0,0,0-2.3,2.6,2.78,2.78,0,0,0,2.9,2.6h1.2c.4,0,.6.2.6.3S30,46.7,29.6,46.7Z" fill="#1087eb"/><circle cx="11.9" cy="11.9" r="11.9" transform="translate(0 0)" fill="#1087eb"/><text transform="translate(7.1 17.41)" fill="#1087eb" font-size="18.8" font-family="ArialMT, IcedEarth rtising"><tspan x="0" y="0">3</tspan></text></g></svg>form="translate(7.1 17.41)">3</text></g></g></svg>