<svg xmlns="http://www.w3.org/2000/svg" width="846.409" height="730.694" viewBox="0 0 846.409 730.694"><g transform="translate(3.999 -253.239)"><path d="M6886,4130.085s378.242,50.964,570.1,138.1,313.821,280.085,265.857,536.831H6889.517Z" transform="translate(-6890 -3821.085)" fill="#75cb63"/><g transform="translate(7.286 196.097)"><g transform="translate(21.475 243.501)"><path d="M123.292,521.727c135.756,78.153,355.849,78.153,491.6,0s135.756-204.847,0-283-355.849-78.153-491.6,0S-12.464,443.574,123.292,521.727Z" transform="translate(-21.475 -180.112)" fill="#f0f0f0" opacity="0.35"/></g><g transform="translate(67.917 306.511)"><path d="M75.223,415.731,285.874,537.348a15.089,15.089,0,0,0,13.67,0L619.126,352.839c3.773-2.182,3.773-5.713,0-7.9L408.491,223.327a15.089,15.089,0,0,0-13.67,0L75.223,407.851C71.449,410.018,71.449,413.549,75.223,415.731Z" transform="translate(-41.67 -221.69)" fill="#e0e0e0"/><path d="M451.816,232.03c-24.854-9.957-64.5-9.957-88.534,0s-24.035,26.1,0,36.038c24.035,9.957,63.665,9.957,88.534,0C476.669,258.111,476.669,241.987,451.816,232.03Z" transform="translate(98.984 -220.209)" fill="#e0e0e0"/><ellipse cx="50.965" cy="24.293" rx="50.965" ry="24.293" transform="translate(0 76.183)" fill="#e0e0e0"/></g><g transform="translate(22.852 310.952)"><path d="M87.286,276.631c-.773-9.623-8.2-26.036-19.186-37.735s-28.582-17.322-39.417-12.609c-10.108,4.395-7.88,17.928,5.456,25.945s33.189,17.837,39.993,33.007L87.3,303.455V276.631Z" transform="translate(-22.383 -224.62)" fill="#fff"/><path d="M87.286,276.631c-.773-9.623-8.2-26.036-19.186-37.735s-28.582-17.322-39.417-12.609c-10.108,4.395-7.88,17.928,5.456,25.945s33.189,17.837,39.993,33.007L87.3,303.455V276.631Z" transform="translate(-22.383 -224.62)" fill="#fff"/><g transform="translate(11.912 7.113)"><path d="M84.628,286.82a1.027,1.027,0,0,0,.212-.03.673.673,0,0,0,.424-.849c-10.82-32.643-41.494-54.527-54.239-56.618a.678.678,0,0,0-.773.546.67.67,0,0,0,.546.773c12.457,2.046,42.539,23.566,53.178,55.724A.7.7,0,0,0,84.628,286.82Z" transform="translate(-30.244 -229.314)" fill="#fff"/></g><g transform="translate(9.512 41.21)"><path d="M82.611,302.35c-1.985-5.289-9.305-13.685-20.6-20.2-12.472-7.214-27.748-9.76-31.7-15.822-4.759-7.289,1.091-15.018,13.366-14.488,12.26.53,34.947,15.382,40.372,40.054Z" transform="translate(-28.66 -251.813)" fill="#fff"/></g><g transform="translate(19.5 47.404)"><path d="M79.79,290.225a.564.564,0,0,0,.3-.076.675.675,0,0,0,.3-.894c-10.563-21.02-32.84-30.84-44.343-33.34a.666.666,0,1,0-.273,1.3c11.275,2.44,33.1,12.063,43.434,32.643A.617.617,0,0,0,79.79,290.225Z" transform="translate(-35.25 -255.9)" fill="#fff"/></g></g><g transform="translate(100.484 298.914)"><g transform="translate(0 0)"><g transform="translate(158.852)"><path d="M178.43,311.214v-4.152l157.458-86.746a8.22,8.22,0,0,1,7.471,0L561.693,343.508v4.122a2.6,2.6,0,0,1-1.546,2.152l-157.458,90.9Z" transform="translate(-178.43 -215.265)" fill="#75cb63"/><path d="M485.414,305.932V301.81l-2.667-1.5L326.41,394.845V399l157.458-90.9A2.643,2.643,0,0,0,485.414,305.932Z" transform="translate(-102.15 -173.567)" fill="#75cb63" opacity="0.1"/><path d="M178.43,308.474l157.458-90.9a8.22,8.22,0,0,1,7.471,0L560.148,342.738c2.061,1.2,2.061,3.122,0,4.319l-157.458,90.9Z" transform="translate(-178.43 -216.677)" fill="#75cb63"/><path d="M402.69,410.884v-4.152L178.43,277.25V281.4Z" transform="translate(-178.43 -185.454)" fill="#75cb63" opacity="0.2"/></g><g transform="translate(0 93.887)"><path d="M236.054,281.31,76.883,365.116l-3.273,5.153v4.137a6.011,6.011,0,0,0,3.273,5.153L286.655,500.675a11.027,11.027,0,0,0,5.456,1.349,11.19,11.19,0,0,0,5.456-1.349l155.624-89.853v-4.137Z" transform="translate(-73.61 -277.249)" fill="#27debf"/><path d="M236.054,281.31,76.883,365.116l-3.273,5.153v4.137a6.011,6.011,0,0,0,3.273,5.153L286.655,500.675a11.027,11.027,0,0,0,5.456,1.349,11.19,11.19,0,0,0,5.456-1.349l155.624-89.853v-4.137Z" transform="translate(-73.61 -277.249)" opacity="0.1"/><path d="M292.126,499.253a11.19,11.19,0,0,1-5.456-1.349L76.883,376.787a5.692,5.692,0,0,1,0-10.305L229.052,278.63,453.206,408.052,297.582,497.9A11.19,11.19,0,0,1,292.126,499.253Z" transform="translate(-73.61 -278.63)" fill="#27debf"/></g><g transform="translate(3.452 81.733)"><path d="M227.877,270.61,77.436,357.462l-1.546,2.152v16.155h0a2.623,2.623,0,0,0,1.546,2.152L287.223,499.038a8.22,8.22,0,0,0,7.471,0l150.441-86.852v-16.14Z" transform="translate(-75.886 -270.61)" fill="#ebebeb"/><path d="M445.137,396.046l-1.879,1.091-24.475,14.124-4.562,2.637L294.7,482.9a8.219,8.219,0,0,1-7.471,0L77.422,361.781c-2.046-1.2-2.046-3.122,0-4.319l2-1.152,148.441-85.7L443.257,394.97l.455.273Z" transform="translate(-75.887 -270.61)" fill="#f0f0f0"/><path d="M290.951,453.528v16.14a7.459,7.459,0,0,1-3.728-.894L77.421,347.642a2.614,2.614,0,0,1-1.531-2.152V329.35a2.653,2.653,0,0,0,1.531,2.152L287.208,452.634A7.724,7.724,0,0,0,290.951,453.528Z" transform="translate(-75.886 -240.331)" fill="#e0e0e0"/></g><path d="M444.24,394.621l-27.082,15.625-4.243,2.455L293.8,481.472a8.219,8.219,0,0,1-7.471,0L98.454,373.01c-1.7-.924-3.258-1.849-4.728-2.728-7.638-4.652-12.245-8.82-15.2-13.245-.121-.2-.242-.364-.364-.546a3.114,3.114,0,0,1-.47-1.121,3.342,3.342,0,0,1,2.622-3.789,69.939,69.939,0,0,0,14.17-5.9c.076-.03.121-.076.2-.106l132.3-76.38Z" transform="translate(-71.539 -189.603)" fill="#fafafa"/><g transform="translate(153.995 79.797)"><g transform="translate(189.237 109.251)"><path d="M301.527,351c-1.909,1.121-1.909,2.925,0,4.046a7.643,7.643,0,0,0,6.971,0c1.94-1.121,1.94-2.925,0-4.046A7.643,7.643,0,0,0,301.527,351Z" transform="translate(-300.095 -336.92)" opacity="0.1"/><path d="M323.036,342.419c-2.652-1.531-5.986-1.288-9.381.652-5.259,3.046-9.82,9.851-11.806,16.973a6.928,6.928,0,0,0,2.576.3c1.834-6.35,5.865-12.336,10.517-15.049a8.833,8.833,0,0,1,4.274-1.318,5.1,5.1,0,0,1,2.516.652c2.243,1.288,3.531,4.456,3.531,8.638a15.9,15.9,0,0,1-.121,2.076l2.455,1.409a24.857,24.857,0,0,0,.258-3.486C327.871,348.163,326.1,344.192,323.036,342.419Z" transform="translate(-299.19 -341.422)" fill="#263238"/><path d="M318.886,352.45a4.761,4.761,0,0,1-.121.606l-.455-.273Z" transform="translate(-290.706 -335.737)" fill="#263238"/></g><g transform="translate(168.218 97.112)"><path d="M287.657,342.986c-1.91,1.121-1.91,2.925,0,4.046a7.643,7.643,0,0,0,6.971,0c1.94-1.121,1.94-2.925,0-4.046A7.643,7.643,0,0,0,287.657,342.986Z" transform="translate(-286.225 -328.91)" opacity="0.1"/><path d="M309.166,334.409c-2.652-1.531-5.986-1.288-9.381.652-5.259,3.061-9.82,9.851-11.806,16.973a6.924,6.924,0,0,0,2.576.3c1.834-6.35,5.865-12.336,10.517-15.049a8.832,8.832,0,0,1,4.274-1.318,5.1,5.1,0,0,1,2.516.652c2.243,1.288,3.531,4.455,3.531,8.638a15.892,15.892,0,0,1-.121,2.076l2.455,1.409a24.858,24.858,0,0,0,.258-3.486C313.986,340.153,312.228,336.182,309.166,334.409Z" transform="translate(-285.32 -333.412)" fill="#263238"/></g><g transform="translate(147.183 84.973)"><path d="M273.777,334.976c-1.91,1.121-1.91,2.925,0,4.046a7.643,7.643,0,0,0,6.971,0c1.94-1.121,1.94-2.925,0-4.046A7.643,7.643,0,0,0,273.777,334.976Z" transform="translate(-272.345 -320.9)" opacity="0.1"/><path d="M295.286,326.4c-2.652-1.531-5.986-1.288-9.381.652-5.259,3.061-9.82,9.851-11.806,16.973a6.926,6.926,0,0,0,2.576.3c1.834-6.35,5.865-12.336,10.517-15.049a8.833,8.833,0,0,1,4.274-1.318,5.1,5.1,0,0,1,2.516.652c2.243,1.288,3.531,4.456,3.531,8.638a15.9,15.9,0,0,1-.121,2.076l2.455,1.409a24.852,24.852,0,0,0,.258-3.486C300.121,332.143,298.363,328.172,295.286,326.4Z" transform="translate(-271.44 -325.402)" fill="#263238"/></g><g transform="translate(126.163 72.834)"><path d="M259.907,326.966c-1.91,1.121-1.91,2.925,0,4.046a7.643,7.643,0,0,0,6.971,0c1.94-1.121,1.94-2.925,0-4.046A7.643,7.643,0,0,0,259.907,326.966Z" transform="translate(-258.475 -312.89)" opacity="0.1"/><path d="M281.416,318.389c-2.652-1.531-5.986-1.288-9.381.652-5.259,3.046-9.82,9.851-11.806,16.973a6.925,6.925,0,0,0,2.576.3c1.834-6.35,5.865-12.336,10.517-15.049a8.833,8.833,0,0,1,4.274-1.318,5.1,5.1,0,0,1,2.516.652c2.243,1.288,3.531,4.456,3.531,8.638a15.9,15.9,0,0,1-.121,2.076l2.455,1.409a24.853,24.853,0,0,0,.258-3.486C286.251,324.133,284.493,320.162,281.416,318.389Z" transform="translate(-257.57 -317.392)" fill="#263238"/></g><g transform="translate(105.128 60.695)"><path d="M246.027,318.956c-1.909,1.121-1.909,2.925,0,4.046A7.643,7.643,0,0,0,253,323c1.94-1.121,1.94-2.925,0-4.046A7.643,7.643,0,0,0,246.027,318.956Z" transform="translate(-244.595 -304.88)" opacity="0.1"/><path d="M267.546,310.379c-2.652-1.531-5.986-1.288-9.381.652-5.259,3.046-9.82,9.851-11.806,16.973a6.926,6.926,0,0,0,2.576.3c1.834-6.35,5.865-12.336,10.517-15.049a8.833,8.833,0,0,1,4.274-1.318,5.1,5.1,0,0,1,2.516.652c2.243,1.288,3.531,4.456,3.531,8.638a15.9,15.9,0,0,1-.121,2.076l2.455,1.409a24.857,24.857,0,0,0,.258-3.486C272.366,316.123,270.608,312.152,267.546,310.379Z" transform="translate(-243.685 -309.382)" fill="#263238"/></g><g transform="translate(84.109 48.556)"><path d="M232.157,310.946c-1.909,1.121-1.909,2.925,0,4.046a7.643,7.643,0,0,0,6.971,0c1.94-1.121,1.94-2.925,0-4.046A7.643,7.643,0,0,0,232.157,310.946Z" transform="translate(-230.725 -296.87)" opacity="0.1"/><path d="M253.666,302.369c-2.652-1.531-5.986-1.288-9.381.652-5.259,3.061-9.82,9.851-11.806,16.973a6.926,6.926,0,0,0,2.576.3c1.834-6.35,5.865-12.336,10.517-15.049a8.833,8.833,0,0,1,4.274-1.318,5.1,5.1,0,0,1,2.516.652c2.243,1.288,3.531,4.456,3.531,8.638a15.9,15.9,0,0,1-.121,2.076l2.455,1.409a24.852,24.852,0,0,0,.258-3.486C258.5,308.113,256.743,304.142,253.666,302.369Z" transform="translate(-229.82 -301.372)" fill="#263238"/></g><g transform="translate(63.089 36.417)"><path d="M218.287,302.936c-1.909,1.121-1.909,2.925,0,4.046a7.643,7.643,0,0,0,6.971,0c1.94-1.121,1.94-2.925,0-4.046A7.643,7.643,0,0,0,218.287,302.936Z" transform="translate(-216.855 -288.86)" opacity="0.1"/><path d="M239.8,294.359c-2.652-1.531-5.986-1.288-9.381.652-5.259,3.061-9.82,9.851-11.806,16.973a6.925,6.925,0,0,0,2.576.3c1.834-6.35,5.865-12.336,10.517-15.049a8.833,8.833,0,0,1,4.274-1.318,5.1,5.1,0,0,1,2.516.652c2.243,1.288,3.531,4.456,3.531,8.638a15.9,15.9,0,0,1-.121,2.076l2.455,1.409a24.853,24.853,0,0,0,.258-3.486C244.631,300.1,242.858,296.132,239.8,294.359Z" transform="translate(-215.95 -293.362)" fill="#263238"/></g><g transform="translate(42.054 24.278)"><path d="M204.407,294.926c-1.909,1.121-1.909,2.925,0,4.046a7.643,7.643,0,0,0,6.971,0c1.94-1.121,1.94-2.925,0-4.046A7.643,7.643,0,0,0,204.407,294.926Z" transform="translate(-202.975 -280.85)" opacity="0.1"/><path d="M225.916,286.349c-2.652-1.531-5.986-1.288-9.381.652-5.259,3.061-9.82,9.851-11.806,16.973a6.928,6.928,0,0,0,2.576.3c1.834-6.35,5.865-12.336,10.517-15.049a8.834,8.834,0,0,1,4.274-1.318,5.1,5.1,0,0,1,2.516.652c2.243,1.288,3.531,4.456,3.531,8.638a15.906,15.906,0,0,1-.121,2.076l2.455,1.409a24.857,24.857,0,0,0,.258-3.486C230.751,292.093,228.993,288.122,225.916,286.349Z" transform="translate(-202.07 -285.352)" fill="#263238"/></g><g transform="translate(21.035 12.139)"><path d="M190.537,286.916c-1.909,1.121-1.909,2.925,0,4.046a7.643,7.643,0,0,0,6.971,0c1.94-1.121,1.94-2.925,0-4.046A7.643,7.643,0,0,0,190.537,286.916Z" transform="translate(-189.105 -272.84)" opacity="0.1"/><path d="M212.046,278.339c-2.652-1.531-5.986-1.288-9.381.652-5.259,3.046-9.82,9.851-11.806,16.973a6.927,6.927,0,0,0,2.576.3c1.834-6.35,5.865-12.336,10.517-15.049a8.834,8.834,0,0,1,4.274-1.318,5.1,5.1,0,0,1,2.516.652c2.243,1.288,3.531,4.456,3.531,8.638a15.9,15.9,0,0,1-.121,2.076l2.455,1.409a24.852,24.852,0,0,0,.258-3.486C216.881,284.083,215.123,280.112,212.046,278.339Z" transform="translate(-188.2 -277.342)" fill="#263238"/></g><path d="M176.657,278.906c-1.909,1.121-1.909,2.925,0,4.046a7.643,7.643,0,0,0,6.971,0c1.94-1.121,1.94-2.925,0-4.046A7.643,7.643,0,0,0,176.657,278.906Z" transform="translate(-175.225 -264.83)" opacity="0.1"/><path d="M198.176,270.329c-2.652-1.531-5.986-1.288-9.381.652-5.259,3.046-9.82,9.851-11.806,16.973a6.926,6.926,0,0,0,2.576.3c1.834-6.35,5.865-12.336,10.517-15.049a8.833,8.833,0,0,1,4.274-1.318,5.1,5.1,0,0,1,2.516.652c2.243,1.288,3.531,4.456,3.531,8.638a15.9,15.9,0,0,1-.121,2.076l2.455,1.409A24.855,24.855,0,0,0,203,281.18C203,276.073,201.238,272.1,198.176,270.329Z" transform="translate(-174.315 -269.332)" fill="#263238"/></g><g transform="translate(29.279 103.92)"><line x1="115.752" y2="66.832" transform="translate(168.202 97.112)" fill="none" stroke="#ebebeb" stroke-linecap="round" stroke-miterlimit="10" stroke-width="0.569"/><line x1="115.737" y2="66.832" transform="translate(154.2 89.019)" fill="none" stroke="#ebebeb" stroke-linecap="round" stroke-miterlimit="10" stroke-width="0.569"/><line x1="115.737" y2="66.832" transform="translate(140.181 80.926)" fill="none" stroke="#ebebeb" stroke-linecap="round" stroke-miterlimit="10" stroke-width="0.569"/><line x1="115.737" y2="66.832" transform="translate(126.163 72.834)" fill="none" stroke="#ebebeb" stroke-linecap="round" stroke-miterlimit="10" stroke-width="0.569"/><line x1="115.737" y2="66.832" transform="translate(112.145 64.741)" fill="none" stroke="#ebebeb" stroke-linecap="round" stroke-miterlimit="10" stroke-width="0.569"/><line x1="115.737" y2="66.832" transform="translate(98.127 56.648)" fill="none" stroke="#ebebeb" stroke-linecap="round" stroke-miterlimit="10" stroke-width="0.569"/><line x1="115.737" y2="66.817" transform="translate(84.109 48.556)" fill="none" stroke="#ebebeb" stroke-linecap="round" stroke-miterlimit="10" stroke-width="0.569"/><line x1="115.737" y2="66.817" transform="translate(70.091 40.463)" fill="none" stroke="#ebebeb" stroke-linecap="round" stroke-miterlimit="10" stroke-width="0.569"/><line x1="115.737" y2="66.817" transform="translate(56.073 32.371)" fill="none" stroke="#ebebeb" stroke-linecap="round" stroke-miterlimit="10" stroke-width="0.569"/><line x1="115.737" y2="66.817" transform="translate(42.054 24.278)" fill="none" stroke="#ebebeb" stroke-linecap="round" stroke-miterlimit="10" stroke-width="0.569"/><line x1="115.737" y2="66.817" transform="translate(28.036 16.185)" fill="none" stroke="#ebebeb" stroke-linecap="round" stroke-miterlimit="10" stroke-width="0.569"/><line x1="115.737" y2="66.817" transform="translate(14.018 8.093)" fill="none" stroke="#ebebeb" stroke-linecap="round" stroke-miterlimit="10" stroke-width="0.569"/><line x1="115.737" y2="66.817" fill="none" stroke="#ebebeb" stroke-linecap="round" stroke-miterlimit="10" stroke-width="0.569"/></g><g transform="translate(137.999 99.904)"><line x2="203.271" y2="117.313" fill="none" stroke="#27debf" stroke-linecap="round" stroke-miterlimit="10" stroke-width="0.569"/><line x1="122.42" y2="70.803" transform="translate(73.728 105.25)" fill="none" stroke="#27debf" stroke-linecap="round" stroke-miterlimit="10" stroke-width="0.569"/></g><g transform="translate(96.828 132.708)" opacity="0.25"><g transform="translate(85.488 47.268)"><path d="M270.206,345.808c-1.061-1.622-3.046-2.273-4.728-3.031-.7-.318-1.47-.743-2.288-1.167-1.076-1.712-2.485-4.5-.606-4.85,1.121-.212,3.289.97,4.5,1.318.682.2.53-.788.045-.985-2.061-.8-6-3.364-6.85.136a5.347,5.347,0,0,0,.47,3.228,6.915,6.915,0,0,0-3.031-.561c-.97.091-1.8.121-2.137,1.258-.182.621.076.894.121,1.364a1.212,1.212,0,0,0,.985,1,8.847,8.847,0,0,0-1.106-.076c-1.455-.061-5.441-1.015-6.38.788-.379.758.485,1.788.364,2.076-.061.136-2.91,1.091-3.395,1.394-.227.136-.076.924-.2,1-.439.258-3.364-.045-4.213.03-2.319.2-8.062-.667-7.3,2.895.076.394.394.333.47.955a2.746,2.746,0,0,0,.182.864c-.091-.015-.242.061-.546.485-.2.273-1,.2-1.288.546-1.106,1.379.576,1.864-.788,2.713-1.925,1.212-5.956-1.243-7.911.121-1.743,1.212.53,4.668-2.561,4.728-.682.015-.288,1.015.227,1.061,2.879.258,2.576-.288,3.122-2.652.909-3.849,6.638-1.2,9.851-2.076a.547.547,0,0,0,.227-.849c-.849-1.364.136-2.122,1.409-2.713a.556.556,0,0,0,.242-.833c-.349-.621-1.561-2.546-.818-3.44a17.712,17.712,0,0,1,3.41-.394,72.6,72.6,0,0,1,7.486-.136.531.531,0,0,0,.485-.712c-.364-.8,2.879-1.318,3.592-1.485a.509.509,0,0,0,.3-.682c-1.546-3.849,4.152-2.425,6.517-2.061a.553.553,0,0,0,.652-.727c-.364-1.288-3.228-2.591.167-3.076a5.641,5.641,0,0,1,2.607.621,18.183,18.183,0,0,0,5.926,6.107C269.66,349.2,271.933,348.414,270.206,345.808Zm-1.046.7c.712.955-1.516.182-1.788.061-1.318-.591-2.182-2.031-2.97-3.167.7.379,1.3.727,1.758.924A6.825,6.825,0,0,1,269.16,346.5Z" transform="translate(-179.615 -335.436)" fill="#455a64"/><path d="M226.612,360.02c-.424-1.667-.47-3.5,1.076-3.713.743-.091.212-1.106-.349-1.137-2.091-.061-2.758,1.743-2.485,3.94a11.875,11.875,0,0,0-2.591-.879c-1.364-.258-2.243-.3-2.7,1.091-.273.833.394,1.364.349,2.107-.076,1.091,1.015.637-.621,1.076a10.9,10.9,0,0,1-1.91-.2c-1.652-.076-1.8.03-2.819.879-1.031.864,1.515,1.273-1.5.788a6.3,6.3,0,0,0-2.364-.333c-1.106.258-1.7.576-1.515,1.8.076.546,1.273,1.288,1.273,1.637-.061,2.667-2.895.409-3.971,0a.5.5,0,0,0-.682.409c-.045,1.318.879,1.773-1.031,1.894-.227.015-1.546-.727-1.97-.727-1.228-.03-2.364,1.606-3.971,1.47-.439-.03-.591.364-.455.712.439,1.2,1.091,1.925-1.318,2.97-.061.03-2.849-.349-2.788-.349-.7-.015-.258,1.121.288,1.167,1.106.076,4.85,1.667,5.956.167.818-1.106-.788-2.379-.394-3.076-.258.455,2.137-.652,2.394-.743a7.129,7.129,0,0,1,1.879-.515c.333.015.621.546.97.546.47,0,.97.227,1.394-.03.318-.2.53-.788.7-.894.424-.273-.546-.621.288-.909.606-.212,1.137.409,1.7.591.909.288,2.273.955,3.046-.015,1-1.258-.849-2.137-.667-2.985.394-1.894,3.092-.455,4.334-1.3a.51.51,0,0,0,.182-.576c-.758-2.622,3.986-.576,5.486-.849.273-.045.546-.227.515-.546-.03-.242-.591-1.622-.591-1.652.379-1.576,2.531-1.394,3.531-1.137.955,3.182,3.486,6.41,6.244,5.547a.492.492,0,0,0,.349-.485C231.644,363.672,229.189,361.505,226.612,360.02Zm1,2.622a7.393,7.393,0,0,1-.364-.758,6.68,6.68,0,0,1,1.94,1.91C229.719,365.385,227.87,363.081,227.613,362.642Z" transform="translate(-193.913 -325.264)" fill="#455a64"/></g><g transform="translate(111.701 64.851)"><path d="M259.766,373.168c-1.061-1.622-3.046-2.273-4.728-3.031-.7-.318-1.47-.743-2.288-1.167-1.076-1.712-2.485-4.5-.606-4.85,1.121-.212,3.289.97,4.5,1.318.682.2.53-.788.045-.985-2.061-.8-6-3.364-6.85.136a5.347,5.347,0,0,0,.47,3.228,6.916,6.916,0,0,0-3.031-.561c-.97.091-1.8.121-2.137,1.258-.182.621.076.894.121,1.364a1.212,1.212,0,0,0,.985,1,8.839,8.839,0,0,0-1.106-.076c-1.455-.061-5.441-1.015-6.38.788-.379.758.485,1.788.364,2.076-.061.136-2.91,1.091-3.395,1.394-.227.136-.076.924-.2,1-.44.258-3.364-.045-4.213.03-2.319.2-8.062-.667-7.3,2.895.076.394.394.333.47.955a2.746,2.746,0,0,0,.182.864c-.091-.015-.242.061-.546.485-.2.273-1,.2-1.288.546-1.106,1.379.576,1.864-.788,2.713-1.925,1.212-5.956-1.243-7.911.121-1.743,1.212.53,4.668-2.561,4.728-.682.015-.288,1.015.227,1.061,2.879.258,2.576-.288,3.122-2.652.909-3.849,6.638-1.2,9.851-2.076a.547.547,0,0,0,.227-.849c-.849-1.364.136-2.122,1.409-2.713a.556.556,0,0,0,.242-.833c-.349-.621-1.561-2.546-.818-3.44a17.712,17.712,0,0,1,3.41-.394,72.592,72.592,0,0,1,7.486-.136.531.531,0,0,0,.485-.712c-.364-.8,2.879-1.318,3.592-1.485a.509.509,0,0,0,.3-.682c-1.546-3.849,4.152-2.425,6.517-2.061a.552.552,0,0,0,.652-.727c-.364-1.288-3.228-2.591.167-3.076a5.641,5.641,0,0,1,2.607.621,18.183,18.183,0,0,0,5.926,6.107C259.205,376.562,261.493,375.79,259.766,373.168Zm-1.046.7c.712.955-1.515.182-1.788.061-1.318-.591-2.182-2.031-2.97-3.167.7.379,1.3.727,1.758.924A7.162,7.162,0,0,1,258.72,373.865Z" transform="translate(-211.21 -338.917)" fill="#455a64"/><path d="M277.842,351.89c-.424-1.667-.47-3.5,1.076-3.713.743-.091.212-1.106-.349-1.137-2.091-.061-2.758,1.743-2.485,3.94a11.876,11.876,0,0,0-2.591-.879c-1.364-.258-2.243-.3-2.7,1.091-.273.833.394,1.364.349,2.107-.076,1.091,1.015.637-.621,1.076a10.9,10.9,0,0,1-1.909-.2c-1.652-.076-1.8.03-2.819.879-1.031.864,1.515,1.273-1.5.788a6.3,6.3,0,0,0-2.364-.333c-1.106.258-1.7.576-1.515,1.8.076.546,1.273,1.288,1.273,1.637-.061,2.667-2.895.409-3.97,0a.5.5,0,0,0-.682.409c-.045,1.318.879,1.773-1.031,1.894-.227.015-1.546-.727-1.97-.727-1.228-.03-2.364,1.606-3.971,1.47-.439-.03-.591.364-.455.712.439,1.2,1.091,1.925-1.318,2.97-.061.03-2.849-.349-2.788-.349-.7-.015-.258,1.121.288,1.167,1.106.076,4.85,1.667,5.956.167.818-1.106-.788-2.379-.394-3.076-.258.455,2.137-.652,2.394-.743a7.129,7.129,0,0,1,1.879-.515c.333.015.621.546.97.546.47,0,.97.227,1.394-.03.318-.2.53-.788.7-.894.424-.273-.546-.621.288-.909.606-.212,1.137.409,1.7.591.909.288,2.273.955,3.046-.015,1-1.258-.849-2.137-.667-2.985.394-1.894,3.092-.455,4.334-1.3a.51.51,0,0,0,.182-.576c-.758-2.622,3.986-.576,5.486-.849.273-.046.546-.227.515-.546-.03-.242-.591-1.622-.591-1.652.379-1.576,2.531-1.394,3.531-1.137.955,3.182,3.486,6.41,6.244,5.547a.492.492,0,0,0,.349-.485C282.874,355.542,280.419,353.375,277.842,351.89Zm1,2.622a7.392,7.392,0,0,1-.364-.758,6.68,6.68,0,0,1,1.94,1.91C280.949,357.255,279.1,354.951,278.843,354.512Z" transform="translate(-193.718 -347.039)" fill="#455a64"/></g><path d="M213.8,314.618c-1.061-1.622-3.046-2.273-4.728-3.031-.7-.318-1.47-.742-2.288-1.167-1.076-1.713-2.485-4.5-.606-4.85,1.121-.212,3.289.97,4.5,1.318.682.2.53-.788.045-.985-2.061-.8-6-3.364-6.85.136a5.347,5.347,0,0,0,.47,3.228,6.916,6.916,0,0,0-3.031-.561c-.97.091-1.8.121-2.137,1.258-.182.621.076.894.121,1.364a1.212,1.212,0,0,0,.985,1,8.829,8.829,0,0,0-1.106-.076c-1.455-.061-5.441-1.015-6.38.788-.379.758.485,1.788.364,2.076-.061.136-2.91,1.091-3.395,1.394-.227.136-.076.924-.2,1-.439.242-3.364-.045-4.213.03-2.319.2-8.062-.667-7.3,2.895.076.394.394.333.47.955a2.746,2.746,0,0,0,.182.864c-.091-.015-.242.061-.546.485-.2.273-1,.2-1.288.546-1.106,1.379.576,1.864-.788,2.713-1.925,1.212-5.956-1.243-7.911.121-1.743,1.212.53,4.668-2.561,4.728-.682.015-.288,1.015.227,1.061,2.879.258,2.576-.288,3.122-2.652.909-3.849,6.638-1.2,9.851-2.076a.547.547,0,0,0,.227-.849c-.849-1.364.136-2.122,1.409-2.713a.556.556,0,0,0,.242-.833c-.349-.621-1.561-2.546-.818-3.44a17.713,17.713,0,0,1,3.41-.394,72.584,72.584,0,0,1,7.486-.136.531.531,0,0,0,.485-.712c-.364-.8,2.879-1.318,3.592-1.485a.509.509,0,0,0,.3-.682c-1.546-3.849,4.152-2.425,6.517-2.061a.552.552,0,0,0,.652-.727c-.364-1.288-3.228-2.591.167-3.076a5.642,5.642,0,0,1,2.607.621,18.182,18.182,0,0,0,5.925,6.107C213.235,318.012,215.523,317.24,213.8,314.618Zm-1.046.7c.712.955-1.515.182-1.788.061-1.318-.591-2.182-2.031-2.97-3.167.7.379,1.3.727,1.758.924A7.162,7.162,0,0,1,212.75,315.315Z" transform="translate(-123.205 -304.246)" fill="#455a64"/><path d="M170.2,328.83c-.424-1.667-.47-3.5,1.076-3.713.743-.091.212-1.106-.349-1.137-2.091-.061-2.758,1.743-2.485,3.94a11.876,11.876,0,0,0-2.591-.879c-1.364-.258-2.243-.3-2.7,1.091-.273.833.394,1.364.349,2.107-.076,1.091,1.015.637-.621,1.076a10.892,10.892,0,0,1-1.909-.2c-1.652-.076-1.8.03-2.819.879-1.031.864,1.515,1.273-1.5.788a6.3,6.3,0,0,0-2.364-.333c-1.106.258-1.7.576-1.515,1.8.076.546,1.273,1.288,1.273,1.637-.061,2.667-2.895.409-3.971,0a.5.5,0,0,0-.682.409c-.045,1.318.879,1.773-1.031,1.894-.227.015-1.546-.727-1.97-.727-1.228-.03-2.364,1.606-3.971,1.47-.439-.03-.591.364-.455.712.439,1.2,1.091,1.925-1.318,2.97-.061.03-2.849-.349-2.788-.349-.7-.015-.258,1.121.288,1.167,1.106.076,4.85,1.667,5.956.167.818-1.106-.788-2.379-.394-3.076-.258.455,2.137-.652,2.394-.743a7.127,7.127,0,0,1,1.879-.515c.333.015.621.546.97.546.47,0,.97.227,1.394-.03.318-.2.53-.788.7-.894.424-.273-.546-.621.288-.909.606-.212,1.137.409,1.7.591.909.288,2.273.955,3.046-.015,1-1.258-.849-2.137-.667-2.985.394-1.894,3.092-.455,4.334-1.3a.51.51,0,0,0,.182-.576c-.758-2.622,3.986-.576,5.486-.849.273-.045.546-.227.515-.546-.03-.242-.591-1.622-.591-1.652.379-1.576,2.531-1.394,3.531-1.137.955,3.182,3.486,6.41,6.244,5.547a.491.491,0,0,0,.349-.485C175.234,332.5,172.764,330.315,170.2,328.83Zm.985,2.622a7.388,7.388,0,0,1-.364-.758,6.68,6.68,0,0,1,1.94,1.909C173.309,334.21,171.46,331.906,171.187,331.452Z" transform="translate(-137.503 -294.074)" fill="#455a64"/><g transform="translate(26.198 17.584)"><path d="M203.346,341.988c-1.061-1.622-3.046-2.273-4.728-3.031-.7-.318-1.47-.743-2.288-1.167-1.076-1.712-2.485-4.5-.606-4.85,1.121-.212,3.289.97,4.5,1.318.682.2.53-.788.045-.985-2.061-.8-6-3.364-6.85.136a5.347,5.347,0,0,0,.47,3.228,6.916,6.916,0,0,0-3.031-.561c-.97.091-1.8.121-2.137,1.258-.182.621.076.894.121,1.364a1.212,1.212,0,0,0,.985,1,8.843,8.843,0,0,0-1.106-.076c-1.455-.061-5.441-1.015-6.38.788-.379.758.485,1.788.364,2.076-.061.136-2.91,1.091-3.395,1.394-.227.136-.076.924-.2,1-.439.258-3.364-.045-4.213.03-2.319.2-8.062-.667-7.3,2.895.076.394.394.333.47.955a2.744,2.744,0,0,0,.182.864c-.091-.015-.242.061-.546.485-.2.273-1,.2-1.288.546-1.106,1.379.576,1.864-.788,2.713-1.925,1.212-5.956-1.243-7.911.121-1.743,1.212.53,4.668-2.561,4.728-.682.015-.288,1.015.227,1.061,2.879.258,2.576-.288,3.122-2.652.909-3.849,6.638-1.2,9.851-2.076a.547.547,0,0,0,.227-.849c-.849-1.364.136-2.122,1.409-2.713a.556.556,0,0,0,.242-.833c-.349-.621-1.561-2.546-.818-3.44a17.713,17.713,0,0,1,3.41-.394,72.6,72.6,0,0,1,7.486-.136.531.531,0,0,0,.485-.712c-.364-.8,2.879-1.318,3.592-1.485a.509.509,0,0,0,.3-.682c-1.546-3.849,4.152-2.425,6.517-2.061a.553.553,0,0,0,.652-.727c-.364-1.288-3.228-2.591.167-3.076a5.642,5.642,0,0,1,2.607.621,18.182,18.182,0,0,0,5.925,6.107C202.8,345.382,205.073,344.61,203.346,341.988Zm-1.046.7c.712.955-1.515.182-1.788.061-1.318-.591-2.182-2.031-2.97-3.167.7.379,1.3.727,1.758.924A6.944,6.944,0,0,1,202.3,342.685Z" transform="translate(-154.79 -307.721)" fill="#455a64"/><path d="M221.432,320.7c-.424-1.667-.47-3.5,1.076-3.713.743-.091.212-1.106-.349-1.137-2.091-.061-2.758,1.743-2.485,3.94a11.878,11.878,0,0,0-2.591-.879c-1.364-.258-2.243-.3-2.7,1.091-.273.833.394,1.364.349,2.107-.076,1.091,1.015.637-.621,1.076a10.892,10.892,0,0,1-1.91-.2c-1.652-.076-1.8.03-2.819.879-1.031.864,1.515,1.273-1.5.788a6.3,6.3,0,0,0-2.364-.333c-1.106.258-1.7.576-1.515,1.8.076.546,1.273,1.288,1.273,1.637-.061,2.667-2.895.409-3.971,0a.5.5,0,0,0-.682.409c-.046,1.318.879,1.773-1.031,1.894-.227.015-1.546-.727-1.97-.727-1.228-.03-2.364,1.606-3.971,1.47-.439-.03-.591.364-.455.712.439,1.2,1.091,1.925-1.318,2.97-.061.03-2.849-.349-2.788-.349-.7-.015-.258,1.121.288,1.167,1.106.076,4.85,1.667,5.956.167.818-1.106-.788-2.379-.394-3.076-.258.455,2.137-.652,2.394-.743a7.13,7.13,0,0,1,1.879-.515c.333.015.621.546.97.546.47,0,.97.227,1.394-.03.318-.2.53-.788.7-.894.424-.273-.546-.621.288-.909.606-.212,1.137.409,1.7.591.909.288,2.273.955,3.046-.015,1-1.258-.849-2.137-.667-2.985.394-1.894,3.092-.455,4.334-1.3a.51.51,0,0,0,.182-.576c-.758-2.622,3.986-.576,5.486-.849.273-.045.546-.227.515-.546-.03-.242-.591-1.622-.591-1.652.379-1.576,2.531-1.394,3.531-1.137.955,3.182,3.486,6.41,6.244,5.547a.491.491,0,0,0,.349-.485C226.449,324.367,223.994,322.185,221.432,320.7Zm.985,2.622a7.4,7.4,0,0,1-.364-.758,6.68,6.68,0,0,1,1.94,1.909C224.524,326.08,222.675,323.776,222.417,323.322Z" transform="translate(-137.293 -315.849)" fill="#455a64"/></g><g transform="translate(34.988 30.441)"><path d="M209.146,360.818c-1.061-1.622-3.046-2.273-4.728-3.031-.7-.318-1.47-.743-2.288-1.167-1.076-1.713-2.485-4.5-.606-4.85,1.121-.212,3.289.97,4.5,1.318.682.2.53-.788.045-.985-2.061-.8-6-3.364-6.85.136a5.347,5.347,0,0,0,.47,3.228,6.915,6.915,0,0,0-3.031-.561c-.97.091-1.8.121-2.137,1.258-.182.621.076.894.121,1.364a1.212,1.212,0,0,0,.985,1,8.847,8.847,0,0,0-1.106-.076c-1.455-.061-5.441-1.015-6.38.788-.379.758.485,1.788.364,2.076-.061.136-2.91,1.091-3.395,1.394-.227.136-.076.924-.2,1-.439.258-3.364-.045-4.213.03-2.319.2-8.062-.667-7.3,2.895.076.394.394.333.47.955a2.745,2.745,0,0,0,.182.864c-.091-.015-.242.061-.546.485-.2.273-1,.2-1.288.546-1.106,1.379.576,1.864-.788,2.713-1.925,1.212-5.956-1.243-7.911.121-1.743,1.212.53,4.668-2.561,4.728-.682.015-.288,1.015.227,1.061,2.879.258,2.576-.288,3.122-2.652.909-3.849,6.638-1.2,9.851-2.076a.547.547,0,0,0,.227-.849c-.849-1.364.136-2.122,1.409-2.713a.556.556,0,0,0,.242-.833c-.349-.621-1.561-2.546-.818-3.44a17.708,17.708,0,0,1,3.41-.394,72.592,72.592,0,0,1,7.486-.136.531.531,0,0,0,.485-.712c-.364-.8,2.879-1.318,3.592-1.485a.509.509,0,0,0,.3-.682c-1.546-3.849,4.152-2.425,6.517-2.061a.553.553,0,0,0,.652-.727c-.364-1.288-3.228-2.591.167-3.076a5.641,5.641,0,0,1,2.607.621A18.182,18.182,0,0,0,206.357,363C208.6,364.212,210.873,363.44,209.146,360.818Zm-1.046.7c.712.955-1.515.182-1.788.061-1.318-.591-2.182-2.031-2.97-3.167.7.379,1.3.727,1.758.924A6.945,6.945,0,0,1,208.1,361.515Z" transform="translate(-160.59 -310.872)" fill="#455a64"/><path d="M222.352,341.26c-.424-1.667-.47-3.5,1.076-3.713.743-.091.212-1.106-.349-1.137-2.091-.061-2.758,1.743-2.485,3.94a11.877,11.877,0,0,0-2.591-.879c-1.364-.258-2.243-.3-2.7,1.091-.273.833.394,1.364.349,2.107-.076,1.091,1.015.637-.621,1.076a10.892,10.892,0,0,1-1.909-.2c-1.652-.076-1.8.03-2.819.879-1.031.864,1.515,1.273-1.5.788a6.3,6.3,0,0,0-2.364-.333c-1.106.258-1.7.576-1.515,1.8.076.546,1.273,1.288,1.273,1.637-.061,2.667-2.895.409-3.971,0a.5.5,0,0,0-.682.409c-.045,1.318.879,1.773-1.031,1.894-.227.015-1.546-.727-1.97-.727-1.228-.03-2.364,1.606-3.971,1.47-.439-.03-.591.364-.455.712.439,1.2,1.091,1.925-1.318,2.97-.061.03-2.849-.349-2.788-.349-.7-.015-.258,1.121.288,1.167,1.106.076,4.849,1.667,5.956.167.818-1.106-.788-2.379-.394-3.076-.258.455,2.137-.652,2.394-.743a7.129,7.129,0,0,1,1.879-.515c.333.015.621.546.97.546.47,0,.97.227,1.394-.03.318-.2.53-.788.7-.894.424-.273-.546-.621.288-.909.606-.212,1.137.409,1.7.591.909.288,2.273.955,3.046-.015,1-1.258-.849-2.137-.667-2.985.394-1.894,3.092-.455,4.334-1.3a.51.51,0,0,0,.182-.576c-.758-2.622,3.986-.576,5.486-.849.273-.045.546-.227.515-.546-.03-.242-.591-1.622-.591-1.652.379-1.576,2.531-1.394,3.531-1.137.97,3.183,3.486,6.411,6.244,5.547a.492.492,0,0,0,.349-.485C227.369,344.912,224.914,342.745,222.352,341.26Zm.985,2.622a7.393,7.393,0,0,1-.364-.758,6.68,6.68,0,0,1,1.94,1.91C225.444,346.625,223.6,344.321,223.337,343.882Z" transform="translate(-145.609 -318.108)" fill="#455a64"/><path d="M242.153,325.768a1.5,1.5,0,0,0-.015-.637c-.455-1.637-2.334-.409-2.652.591-.273.833.394,1.364.349,2.107-.076,1.091,1.015.637-.621,1.076a10.9,10.9,0,0,1-1.91-.2c-1.652-.076-1.8.03-2.819.879-1.031.864,1.515,1.273-1.5.788a6.3,6.3,0,0,0-2.364-.333c-1.106.258-1.7.576-1.515,1.8.076.546,1.273,1.288,1.273,1.637-.061,2.667-2.895.409-3.971,0a.5.5,0,0,0-.682.409c-.045,1.318.879,1.773-1.03,1.894-.227.015-1.546-.727-1.97-.727-1.228-.03-2.364,1.606-3.971,1.47-.439-.03-.591.364-.455.712.439,1.2,1.091,1.925-1.318,2.97-.061.03-2.849-.349-2.788-.349-.7-.015-.258,1.121.288,1.167,1.106.076,4.85,1.667,5.956.167.818-1.106-.788-2.379-.394-3.076-.258.455,2.137-.652,2.394-.743a7.13,7.13,0,0,1,1.879-.515c.333.015.621.546.97.546.47,0,.97.227,1.394-.03.318-.2.53-.788.7-.894.424-.288-.546-.621.288-.909.606-.212,1.137.409,1.7.591.909.288,2.273.955,3.046-.015,1-1.258-.849-2.137-.667-2.985.394-1.894,3.092-.455,4.334-1.3a.51.51,0,0,0,.182-.576c-.758-2.622,3.986-.576,5.486-.849.273-.045.546-.227.515-.546-.152-1.212-.546-2.076-.212-3.38A4.608,4.608,0,0,1,242.153,325.768Z" transform="translate(-133.145 -324.333)" fill="#455a64"/></g></g></g></g><g transform="translate(75.858 57.142)"><g transform="translate(46.874 71.762)"><path d="M114.053,117.475c7.062,8.441,18.731,19.838,25.339,28.142a24.214,24.214,0,0,1,5.365,15.337c-.061,4.137-1.182,7.593-5.228,5.835-2.925-1.273-4.774-2.788-9.047-6.986-3.834-3.789-22.384-21.171-22.384-21.171s-3.47-21.368-9.2-23.1c-5.728-1.743-10.608-10.881-10.608-10.881C97.64,103.715,105.1,106.776,114.053,117.475Z" transform="translate(-88.29 -104.494)" fill="#f28f8f"/></g><g transform="translate(57.212)"><path d="M147.89,262.522l33.143,48.51a1.787,1.787,0,0,0,3.258-.909l3.228-59.013Z" transform="translate(-67.906 42.844)" fill="#ffa8a7"/><path d="M175.219,294.344a1.785,1.785,0,0,1-3.258.909l-6.471-9.472h0a9.913,9.913,0,0,0,9.775-3.289l.652-.773Z" transform="translate(-58.834 58.623)" fill="#263238"/><path d="M143.456,93.58l1.455,5.244,1.788,6.32,63.347,227.185c-2.879,5.956-8.426,10.123-14.564,12.488-9.335,3.652-20.065,3.213-25.051-1.091l-62.877-225.5-3.364-12.078C106.812,113.827,145.972,101.339,143.456,93.58Z" transform="translate(-90.432 -38.358)" fill="#75cb63"/><path d="M147.181,106.73l3.243,11.7c1.046,3.364-5.577,7.547-13.7,10.623-10.79,4.107-24.248,6.244-25.642,1.788l-2.41-8.623-.8-3.092c1.409,4.455,14.852,2.319,25.657-1.788,7.79-2.955,14.215-6.956,13.745-10.229l-.015-.03A.963.963,0,0,0,147.181,106.73Z" transform="translate(-88.535 -31.58)" fill="#ebebeb"/><path d="M148.825,112.639c2.455,7.8-36.872,20.2-39.327,12.4l-3.289-11.7c2.455,7.8,41.782-4.592,39.327-12.4Z" transform="translate(-89.391 -34.565)" fill="#75cb63"/><path d="M143.461,93.58l3.243,11.548c2.47,7.638-35.371,19.989-39.145,13.079a2.216,2.216,0,0,1-.2-.424l-3.183-11.669C106.817,113.827,145.977,101.339,143.461,93.58Z" transform="translate(-90.437 -38.358)" fill="#ebebeb"/><path d="M107.554,113.938,104.19,101.86c1.182,3.486,9.835,2.834,18.716.364h0L188,342.563l15.549,45.4L170.4,339.456l.03-.015h0Z" transform="translate(-90.432 -34.09)" opacity="0.1"/><path d="M134.405,63.322l13.73,49.041c1.076,3.319-5.456,7.5-13.5,10.593-10.79,4.137-24.278,6.365-25.763,1.955a.116.116,0,0,1-.03-.045l-13.2-47.177c-3.986-10.745,15.5-21.308,28.491-20.5C129.01,57.457,132.92,59.306,134.405,63.322Z" transform="translate(-95.112 -57.142)" fill="#f28f8f"/></g><g transform="translate(0 11.379)"><g transform="translate(11.26)"><path d="M92.508,117.389h0A27.721,27.721,0,0,1,64.79,89.67V88.14A23.491,23.491,0,0,1,88.28,64.65h8.456a23.491,23.491,0,0,1,23.49,23.49V89.67A27.721,27.721,0,0,1,92.508,117.389Z" transform="translate(-64.79 -64.65)" fill="#263238"/></g><path d="M57.36,114.1h0A12.593,12.593,0,0,0,69.954,101.51V76.49h0A12.593,12.593,0,0,0,57.36,89.084V114.1Z" transform="translate(-57.36 -58.547)" fill="#263238"/><g transform="translate(44.437 312.049)"><path d="M109.744,285.443a73.687,73.687,0,0,0,10.578,9.2,4.389,4.389,0,0,1,1.47,1.515c.5,1.03,1.273,3.607-3.455,5.259a17.662,17.662,0,0,1-14.594-1.394c-3.88-2.425-4.061-7.486-7.714-10.366-2.713-2.137-6.107-2.682-8.3-5.471-1.531-1.94-1.137-4.531-.333-7.729.864-3.5,1.273-6.138,2.425-5.88l-.2,1.606c1.44,2.3,8.926,2.985,12.26,1.394C101.879,273.561,107.653,283.139,109.744,285.443Z" transform="translate(-86.682 -270.559)" fill="#263238"/></g><g transform="translate(47.364 302.019)"><path d="M112.038,292.113v-.03c-1.121-1.031-2.228-2.091-3.289-3.243a92.809,92.809,0,0,1-6.107-9c-1.137-1.834-2.546-4.152-2.607-6.577-.076-3.092.227-8.593.227-8.593l-11.078-.727-.546,11.624h0c-.288,2.637,1.894,4.971,5.744,8.3,3.864,3.319,8.759,11.078,12.245,13.033s5.986,1.879,7.486.879C115.644,296.75,115.8,295.962,112.038,292.113Z" transform="translate(-88.613 -263.94)" fill="#ffa8a7"/></g><g transform="translate(7.52 323.127)"><path d="M85.4,292.753a73.686,73.686,0,0,0,10.578,9.2,4.389,4.389,0,0,1,1.47,1.515c.5,1.031,1.273,3.607-3.455,5.259A17.605,17.605,0,0,1,79.4,307.332c-3.88-2.425-4.061-7.487-7.729-10.366-2.713-2.137-6.107-2.682-8.3-5.471-1.531-1.94-1.137-4.531-.333-7.729.864-3.5,1.273-6.138,2.425-5.88l-.2,1.606c1.44,2.3,8.926,2.985,12.26,1.394C77.534,280.871,83.293,290.449,85.4,292.753Z" transform="translate(-62.322 -277.869)" fill="#263238"/></g><g transform="translate(10.447 313.931)"><path d="M87.678,299.139v-.03c-1.121-1.031-2.228-2.091-3.289-3.243a92.819,92.819,0,0,1-6.107-9,15.585,15.585,0,0,1-2.591-6.7c-.2-2.713-.061-8.365-.061-8.365l-11.078.061-.273,10.714h0c-.288,2.637,1.894,4.971,5.744,8.3,3.864,3.319,8.759,11.078,12.245,13.033s5.986,1.879,7.486.879C91.3,303.776,91.451,302.988,87.678,299.139Z" transform="translate(-64.253 -271.8)" fill="#ffa8a7"/></g><g transform="translate(6.638 131.225)"><path d="M65.71,154.422c-9.654,21.1,1.334,101.1,1.334,101.1-.288,3.425-3.3,8.744-3.667,19.2-.455,13.427,1.925,63,1.925,63a13.98,13.98,0,0,0,12.639.258s11.442-67.3,13.67-85c1.955-15.443,5.683-51.769,5.683-51.769l7.7,51.678s-3.955,8.623-4.152,16.413c-.273,10.457,1.273,59,1.273,59s4.683,1.637,12.836.439c0,0,11.639-65.681,12.73-78.214.652-7.486-4.94-99.279-4.94-99.279Z" transform="translate(-61.74 -151.24)" fill="#37474f"/></g><g transform="translate(42.206 155.533)"><path d="M85.21,192.937l3.137-17.246s13.276-2.743,19.292-8.411c0,0-6.32,7.85-15.685,10.426L88.438,192.8l3.486,45.085Z" transform="translate(-85.21 -167.28)" fill="#263238"/></g><g transform="translate(10.623 60.513)"><path d="M83.222,105.1h0c-8.471,1.167-13.018,3.046-15.761,11-1.788,5.213-1.3,12.882.5,18.08l7.411,21.656s-7.3,11.381-11,22.626c21.656,12.093,50.526,5.668,57.027-3.167.273-1.864-1.485-10.911-.955-20.52.561-10.229,2.2-21.99.591-28.309-2.985-11.745-11.184-19.413-20.413-21.883Z" transform="translate(-64.37 -104.58)" fill="#f5f5f5"/></g><g transform="translate(19.652 11.215)"><path d="M108.264,72.05c2.925,1.728,6.547,9.093,6.183,24.536-.3,13.079-4.546,16.322-6.668,17.246s-6.229.364-10.229-.3v7.85s5.516,6.41,5.168,10c-.349,3.607-7.971,4.455-13.124.94a33.306,33.306,0,0,1-8.471-8.866V104.466s-2.7,3.607-7.108.667C69.6,102.208,69.437,94.964,72,92.357s8.093-1.773,9.123,1.819c0,0,6.365.227,14.852-4.425A23.824,23.824,0,0,0,108.264,72.05Z" transform="translate(-70.327 -72.05)" fill="#ffa8a7"/></g><g transform="translate(45.871 30.823)"><path d="M90.919,86.612a1.647,1.647,0,1,1-1.728-1.622A1.682,1.682,0,0,1,90.919,86.612Z" transform="translate(-87.629 -84.989)" fill="#263238"/></g><g transform="translate(49.517 43.54)"><path d="M90.119,93.38l3.819,1.212a1.958,1.958,0,0,1-2.485,1.364A2.084,2.084,0,0,1,90.119,93.38Z" transform="translate(-90.034 -93.38)" fill="#f28f8f"/></g><g transform="translate(59.331 24.182)"><path d="M99.844,83.825l-3.334-2.3a1.934,1.934,0,0,1,2.758-.561A2.11,2.11,0,0,1,99.844,83.825Z" transform="translate(-96.51 -80.606)" fill="#263238"/></g><g transform="translate(58.601 29.641)"><path d="M99.319,85.832a1.647,1.647,0,1,1-1.728-1.622A1.682,1.682,0,0,1,99.319,85.832Z" transform="translate(-96.029 -84.209)" fill="#263238"/></g><g transform="translate(54.133 30.325)"><path d="M93.08,84.66l.258,9.9,5.213-1.606Z" transform="translate(-93.08 -84.66)" fill="#f28f8f"/></g><g transform="translate(32.658 46.237)"><path d="M93.125,101.616c-4.213-.546-12.866-3.031-14.215-6.456a8.9,8.9,0,0,0,3.031,4.365c2.591,2.213,11.184,4.713,11.184,4.713Z" transform="translate(-78.91 -95.16)" fill="#f28f8f"/></g></g><g transform="translate(11.976 74.407)"><path d="M166.75,168.011c-2.576.97-5.153,1.031-8.669,2.7-3.092,1.455-4.395,2-7.577,2.167-3.455.167-13.094-3.94-21.58-7.9-10-4.653-20.656-13.079-24.748-17.7-8.32-9.4-15.412-21.141-19.08-27.415-3.016-5.168-6.138-12.685-10.9-13.624-8.335.879-11.73,15.4-6.32,24.369s15.018,20.7,25.278,30.658c4.971,4.819,14.079,10.048,27.112,15.625a177.014,177.014,0,0,0,26.324,9.063c2.607.682,4.455,1.652,9.366,3.334a21.858,21.858,0,0,0,6.213,1.546,27.215,27.215,0,0,0,7.9-.849,18.843,18.843,0,0,0,8.638-4.88,11.762,11.762,0,0,0,2.895-4.653,7.9,7.9,0,0,0-.182-5.41,2.157,2.157,0,0,0-.637-.909,2.553,2.553,0,0,0-1.955-.227c-3.728.546-7.668,1.682-11.412,1.819-3.167.121-5.425-.227-5.016-.727.394-.5,2.273-.439,4.668-1.8,2.3-1.3,3.774-3.955,2.94-5.183C169.19,166.783,169.327,167.041,166.75,168.011Z" transform="translate(-65.262 -106.24)" fill="#ffa8a7"/></g><path d="M140.788,126.868s-3.44-2.743-10-1.667c-3.167.515-1.955,12.518,8.244,15.867,6.638,2.182,7.987,1.061,10.123,6.517,0,0,4-.834,3.031-6.941a34.055,34.055,0,0,0-8.093-16.928c-2.925-3.455-3.122-6.365-4.562-5.38-1.622,1.106-.636,3.971-.636,3.971Z" transform="translate(-20.308 -25.697)" fill="#ffa8a7"/></g><g transform="translate(503.472 122.373)"><g transform="translate(9.942 94.119)"><path d="M450.494,169.019c-24.354-8.972-63.2-8.972-86.746,0s-23.55,23.52,0,32.477c23.55,8.972,62.392,8.972,86.746,0S474.847,177.99,450.494,169.019Z" transform="translate(-346.085 -162.29)" fill="#263238"/></g><g transform="translate(8.009 61.399)"><path d="M471.352,140.7l-126.542.136L354.4,289.929h.121c.606,5.425,5.668,10.79,15.337,14.927,20.61,8.835,54.587,8.835,75.91,0,10-4.152,15.246-9.5,15.867-14.927h.121Z" transform="translate(-344.81 -140.7)" fill="#fff"/></g><g transform="translate(8.009 61.399)"><path d="M344.81,140.852l1.955,30.279a56.809,56.809,0,0,0,10.563,5.668c27.369,11.336,72.485,11.336,100.794,0,1.228-.485,2.243-1.03,3.349-1.546a62.923,62.923,0,0,0,7.941-4.471l1.94-30.082Z" transform="translate(-344.81 -140.7)" fill="#f0f0f0"/></g><g transform="translate(0.008 31.529)"><path d="M482.076,155.27V132.477H467.33c-1.97-1.031-4.122-2.031-6.486-2.985-28.309-11.336-73.425-11.336-100.794,0a65.78,65.78,0,0,0-6.2,2.985H339.53V155.27h0c0,7.426,6.835,14.852,20.52,20.52,27.369,11.336,72.485,11.336,100.794,0C475,170.122,482.076,162.7,482.076,155.27Z" transform="translate(-339.53 -120.99)" fill="#75cb63"/></g><g transform="translate(0 13.995)"><path d="M460.846,117.922c-28.309-11.336-73.425-11.336-100.794,0s-27.37,29.7,0,41.039,72.485,11.336,100.794,0S489.155,129.258,460.846,117.922Z" transform="translate(-339.525 -109.42)" fill="#27debf"/></g><g transform="translate(0 13.995)" opacity="0.44"><path d="M460.846,117.922c-28.309-11.336-73.425-11.336-100.794,0s-27.37,29.7,0,41.039,72.485,11.336,100.794,0S489.155,129.258,460.846,117.922Z" transform="translate(-339.525 -109.42)" fill="#75cb63"/></g><path d="M457.891,131.428h0l-5.7-20.838H357.385l-5.713,20.838h0c-2.122,5.926,2.849,12.124,14.943,16.685,20.58,7.744,54.512,7.744,75.8,0C454.936,143.567,460.089,137.353,457.891,131.428Z" transform="translate(-333.509 -94.821)" fill="#75cb63"/><g transform="translate(23.604)"><path d="M436.238,105.345c-18.928-6.88-49.116-6.88-67.408,0-18.307,6.88-18.307,18.049,0,24.93s48.48,6.88,67.408,0S455.167,112.241,436.238,105.345Z" transform="translate(-355.1 -100.185)" fill="#27debf"/></g><g transform="translate(23.604)" opacity="0.3"><path d="M436.238,105.345c-18.928-6.88-49.116-6.88-67.408,0-18.307,6.88-18.307,18.049,0,24.93s48.48,6.88,67.408,0S455.167,112.241,436.238,105.345Z" transform="translate(-355.1 -100.185)" fill="#49d596"/></g><g transform="translate(30.166 6.554)"><path d="M441.644,115.6c-.03.258-.53,1.152-2.091,2.364a30.608,30.608,0,0,1-7.759,3.925c-8.35,3.016-19.913,4.789-31.7,4.789s-23.156-1.743-31.188-4.743a26.819,26.819,0,0,1-7.5-3.971c-1.546-1.243-1.97-2.167-1.97-2.394,0-.455,1.637-3.38,9.472-6.32,8.032-3.016,19.4-4.743,31.188-4.743s23.353,1.743,31.7,4.789C439.644,112.133,441.614,115.012,441.644,115.6Z" transform="translate(-359.43 -104.51)" fill="#75cb63"/></g><g transform="translate(32.136 11.298)" opacity="0.1"><path d="M438.883,116.354a30.609,30.609,0,0,1-7.759,3.925c-8.35,3.016-19.913,4.789-31.7,4.789s-23.156-1.743-31.188-4.743a26.819,26.819,0,0,1-7.5-3.971,26.817,26.817,0,0,1,7.5-3.971c8.032-3.016,19.4-4.743,31.188-4.743s23.353,1.743,31.7,4.789A28.954,28.954,0,0,1,438.883,116.354Z" transform="translate(-360.73 -107.64)"/></g><g transform="translate(88.231 18.683)"><path d="M400.829,114.266c2.758-1.561,6.107-2.2,7.486-1.425s.258,2.682-2.5,4.274c-2.758,1.576-6.107,2.228-7.486,1.425C396.964,117.737,398.071,115.827,400.829,114.266Z" transform="translate(-397.745 -112.513)" fill="#263238"/></g><g transform="translate(9.949 117.093)"><path d="M349.636,231.462c0,5.531,5.547,11.078,16.64,15.306,22.187,8.456,58.77,8.456,81.73,0,11.457-4.213,17.186-9.745,17.216-15.276l3.546-54.042c0,5.88-6.092,11.76-18.277,16.246-24.354,8.972-63.2,8.972-86.746,0C351.97,189.21,346.09,183.33,346.09,177.45Z" transform="translate(-346.09 -177.45)" fill="#455a64"/></g><g transform="translate(40.967 146.224)"><g transform="translate(0 6.348)"><path d="M389.2,222.591c-2.061-2.773-3.2-6.168-4.865-9.169A27.141,27.141,0,0,0,370.2,200.981a1.756,1.756,0,0,0-2.2.8c-3.076,6.259-1.182,15.018,5.168,21.383,6.3,6.3,14.973,8.244,21.217,5.3.349-.167.455-.864.167-1.03A17.742,17.742,0,0,1,389.2,222.591Z" transform="translate(-366.557 -200.861)" fill="#263238"/></g><g transform="translate(5.941)"><path d="M371.572,201.412a30.215,30.215,0,0,1,8.911,5.486,27.314,27.314,0,0,1,6.456,8.82c2.379,5.047,4.637,8.153,8.123,10.76a1.742,1.742,0,0,0,2.44-.379c4.152-6.289,2.5-15.928-4.349-22.778-6.5-6.5-15.5-8.365-21.793-5.016A1.723,1.723,0,0,0,371.572,201.412Z" transform="translate(-370.478 -196.672)" fill="#263238"/></g></g></g></g></g></svg>