<svg xmlns="http://www.w3.org/2000/svg" width="54.46" height="67.76" viewBox="0 0 54.46 67.76"><path d="M24.2,49.8H41a.68.68,0,0,0,.7-.7V44.8a5,5,0,0,0-5-5h-.9v-1A6.49,6.49,0,0,0,39,34a.77.77,0,0,0,.8-.7c.1-3.8-.4-6.1-1.8-7.5-1.2-1.2-2.9-1.8-5.5-1.8s-4.3.6-5.5,1.8c-1.4,1.4-1.9,3.7-1.8,7.5a.86.86,0,0,0,.6.7H26a6.49,6.49,0,0,0,3.2,4.8v1h-.9a5,5,0,0,0-5,5v4.3C23.5,49.4,23.8,49.8,24.2,49.8Zm6.6-10.4a7.31,7.31,0,0,0,3.6,0v1.8a2.11,2.11,0,0,1-.5,1.3,1.9,1.9,0,0,1-1.3.5,2.11,2.11,0,0,1-1.3-.5,1.9,1.9,0,0,1-.5-1.3ZM28.2,26.8c.9-.9,2.3-1.3,4.4-1.3s3.6.4,4.4,1.3,1.4,2.6,1.4,5.2c-1.1-.7-2.8-2-3-2.9a.82.82,0,0,0-.5-.5h-.2a.52.52,0,0,0-.4.2,11,11,0,0,1-5.1.8,2.68,2.68,0,0,0-2.4.6,6.34,6.34,0,0,1,1.4-3.4Zm-.6,6.3V31.6A1.16,1.16,0,0,1,29,31a12.22,12.22,0,0,0,5.4-.7,10.49,10.49,0,0,0,3.3,3,5,5,0,0,1-7.2,4.4,5.07,5.07,0,0,1-2.9-4.6ZM25,44.7a3.54,3.54,0,0,1,3.5-3.5h.9a3.24,3.24,0,0,0,3.3,3.2A3.31,3.31,0,0,0,36,41.2h.9a3.54,3.54,0,0,1,3.5,3.5v3.6H25Z" fill="#1087eb"/><path d="M47.8,66.9H17.2a5.8,5.8,0,0,1-5.8-5.8V23.7a5.8,5.8,0,0,1,5.8-5.8H47.8a5.8,5.8,0,0,1,5.8,5.8V61.1A5.8,5.8,0,0,1,47.8,66.9Z" fill="none" stroke="#0f86eb" stroke-miterlimit="10" stroke-width="1.72"/><path d="M41.1,54H24.3a.75.75,0,0,0,0,1.5H41.1a.75.75,0,1,0,0-1.5Z" fill="#1087eb"/><path d="M41.1,58.4H24.3a.75.75,0,0,0,0,1.5H41.1a.75.75,0,0,0,0-1.5Z" fill="#1087eb"/><circle cx="11.9" cy="11.9" r="11.9" transform="translate(0 0)" fill="#1087eb"/><text transform="translate(7.08 17.41)" fill="#1087eb" font-size="18.8" font-family="ArialMT, IcedEarth rtising"><tspan x="0" y="0">2</tspan></text></svg>